<?xml version="1.0" encoding="utf-8"?>
<!-- Generator: Adobe Illustrator 21.0.0, SVG Export Plug-In . SVG Version: 6.00 Build 0)  -->
<svg version="1.1" xmlns="http://www.w3.org/2000/svg" xmlns:xlink="http://www.w3.org/1999/xlink" x="0px" y="0px"
	 viewBox="0 0 83.2 77.8" style="enable-background:new 0 0 83.2 77.8;" xml:space="preserve">
<style type="text/css">
	.st0{display:none;}
	.st1{display:inline;}
	.st2{fill:#FFFFFF;}
	.st3{fill:#333A3B;}
	.st4{fill:none;stroke:#333A3B;stroke-miterlimit:10;}
	.st5{fill:#428EAD;}
	.st6{fill:none;stroke:#428EAD;stroke-width:3;stroke-miterlimit:10;}
	.st7{fill:#214757;}
	.st8{fill:#CE8835;}
	.st9{fill:none;stroke:#333A3B;stroke-width:0.5;stroke-miterlimit:10;}
	.st10{opacity:0.56;fill:#E6E6E6;}
	.st11{opacity:0.56;fill:#CCCCCC;}
	.st12{fill:#BDBDBD;}
	.st13{fill:#878787;}
	.st14{fill:#46803D;}
	.st15{fill:#E44360;}
	.st16{fill:#020202;}
	.st17{fill:#010101;}
	.st18{fill:#040404;}
	.st19{fill:#585858;}
	.st20{fill:#4F4F4F;}
	.st21{fill:#FEFDFE;}
	.st22{fill:#FEFDFD;}
	.st23{fill:#FEFBFC;}
	.st24{fill:#E0E0E0;}
	.st25{fill:#5FB255;}
	.st26{fill:#BA9691;}
	.st27{fill:#99655F;}
	.st28{fill:#995C2C;}
	.st29{fill:#DCDCDC;}
	.st30{fill:#F1F1F1;}
	.st31{fill:none;stroke:#FFFFFF;stroke-width:2;stroke-miterlimit:10;}
	.st32{fill:#636363;}
	.st33{fill:#EF5B4A;}
	.st34{fill:none;stroke:#FFFFFF;stroke-miterlimit:10;}
</style>
<g id="Layer_1" class="st0">
</g>
<g id="Layer_2">
	<g>
		<g>
			<rect class="st25" width="83.2" height="77.8"/>
		</g>
		<g>
			<g>
				<g>
					<path class="st3" d="M29.7,25c0.4,0.6,1,1.4,1.6,2.4c0.6,0.9,1.4,2,2.1,3s1.6,2.2,2.4,3.3c0.8,1.1,1.6,2.2,2.3,3.3
						s1.4,2,2.1,2.9c0.6,0.9,1.1,1.6,1.5,2.2c0.2-0.3,0.6-0.8,1.1-1.6c0.5-0.8,1.2-1.7,1.9-2.7s1.5-2.2,2.4-3.4
						c0.9-1.2,1.7-2.4,2.5-3.6c0.8-1.2,1.6-2.3,2.3-3.3s1.3-1.8,1.8-2.5v25.9h-2.5V33.3c0-0.2,0-0.4,0-0.7c0-0.2,0-0.4,0-0.6
						c-0.4,0.6-0.9,1.2-1.4,2s-1.1,1.6-1.7,2.5c-0.6,0.9-1.2,1.8-1.8,2.7c-0.6,0.9-1.2,1.8-1.8,2.7c-0.6,0.9-1.1,1.7-1.6,2.4
						c-0.5,0.7-0.9,1.4-1.2,1.8c-0.3-0.4-0.8-1-1.3-1.8s-1.2-1.6-1.8-2.6c-0.7-1-1.3-2-2.1-3s-1.4-2-2-2.9s-1.2-1.7-1.6-2.4
						s-0.8-1.2-1-1.4c0,0.2,0,0.4,0.1,0.6c0,0.2,0.1,0.5,0.1,0.7v17.7h-2.4V25z"/>
				</g>
			</g>
			<g>
				<g>
					<rect x="13.6" y="38.4" class="st3" width="55.9" height="3"/>
				</g>
			</g>
		</g>
	</g>
</g>
</svg>
